<svg width="61" height="35" viewBox="0 0 61 35" fill="none" xmlns="http://www.w3.org/2000/svg">
<path d="M30.4321 2.03695L34.049 9.39049L34.1653 9.62704L34.4263 9.66469L42.5397 10.8352L36.6737 16.5682L36.4861 16.7516L36.5304 17.0102L37.9134 25.082L30.6658 21.2654L30.4331 21.1429L30.2002 21.2653L22.9373 25.083L24.3204 17.0102L24.3647 16.7516L24.1771 16.5682L18.3111 10.8352L26.4246 9.66469L26.685 9.62711L26.8015 9.39114L30.4321 2.03695Z" stroke="#DFD270"/>
<path d="M52.3542 19.7747L54.4027 23.9329L54.519 24.1691L54.7795 24.2068L59.3523 24.8688L56.0409 28.1067L55.8531 28.2902L55.8977 28.5489L56.682 33.1078L52.5886 30.9508L52.3559 30.8282L52.123 30.9506L48.0139 33.1094L48.7985 28.5489L48.843 28.2902L48.6553 28.1067L45.3438 24.8688L49.9166 24.2068L50.1764 24.1692L50.2929 23.934L52.3542 19.7747Z" stroke="#DFD270"/>
<path d="M8.4964 19.7747L10.5577 23.934L10.6742 24.1692L10.934 24.2068L15.5068 24.8688L12.1953 28.1067L12.0076 28.2902L12.0521 28.5489L12.8367 33.1094L8.72761 30.9506L8.49472 30.8282L8.26197 30.9508L4.16862 33.1078L4.95294 28.5489L4.99745 28.2902L4.80974 28.1067L1.4983 24.8688L6.07105 24.2068L6.3316 24.1691L6.44794 23.9329L8.4964 19.7747Z" stroke="#DFD270"/>
</svg>
