<svg width="86" height="107" viewBox="0 0 86 107" fill="none" xmlns="http://www.w3.org/2000/svg">
<g clip-path="url(#clip0)">
<path d="M9.07782 77.8691V88.3581H6.30496V84.0256H2.75636V88.3581H0V77.8691H2.75636V81.6158H6.30496V77.8691H9.07782Z" fill="white"/>
<path d="M0 105.986V95.5054H3.97774L5.89233 102.776L7.84819 95.5054H11.7186V105.986H9.12734L9.25938 97.9976L6.91565 105.986H4.81125L2.47577 98.0389L2.5748 105.986H0Z" fill="white"/>
<path d="M25.649 77.8691V80.0808H19.9795V81.8881H25.1621V84.009H19.9795V86.0557H25.7563V88.3581H17.2561V77.8691H25.649Z" fill="white"/>
<path d="M25.649 95.5384V97.7336H19.9795V99.5409H25.1621V101.662H19.9795V103.708H25.7563V105.986H17.2561V95.5054L25.649 95.5384Z" fill="white"/>
<path d="M38.5642 77.8613L42.4842 88.3586H39.6536L38.9769 86.444H35.354L34.6608 88.3586H31.8632L35.7996 77.8613H38.5642ZM38.3579 84.4634L37.1778 80.791L35.9729 84.4634H38.3579Z" fill="white"/>
<path d="M32.837 105.986V95.5052H37.3264C38.0225 95.4381 38.7248 95.5264 39.3828 95.7635C40.0407 96.0006 40.6379 96.3807 41.1312 96.8764C41.6245 97.3721 42.0018 97.9711 42.2357 98.6301C42.4697 99.2892 42.5546 99.992 42.4842 100.688C42.537 101.406 42.4451 102.127 42.214 102.809C41.983 103.491 41.6174 104.119 41.1391 104.657C40.6 105.13 39.9721 105.492 39.292 105.72C38.6119 105.948 37.8932 106.038 37.1778 105.986H32.837ZM35.5603 103.708H37.0623C38.8393 103.708 39.7279 102.726 39.7279 100.762C39.7802 99.9587 39.52 99.1663 39.0016 98.5504C38.7214 98.2784 38.3868 98.0687 38.0199 97.9351C37.653 97.8014 37.262 97.7467 36.8725 97.7746H35.5603V103.708Z" fill="white"/>
<path d="M48.1455 88.3585V77.8695H53.6417C54.5575 77.8326 55.4589 78.1059 56.2 78.6453C56.5335 78.9158 56.7975 79.2622 56.9698 79.6556C57.1421 80.049 57.2177 80.4779 57.1903 80.9065C57.2203 81.4525 57.0768 81.994 56.7804 82.4536C56.4839 82.9131 56.0496 83.267 55.5398 83.4648C55.8586 83.5577 56.1482 83.731 56.3808 83.968C56.6135 84.205 56.7814 84.4977 56.8684 84.8182C57.0374 85.5507 57.145 86.296 57.1903 87.0464C57.1903 87.0464 57.1903 87.1372 57.1903 87.2444C57.1903 87.3517 57.1903 87.4177 57.1903 87.459C57.1903 87.5003 57.1903 87.558 57.1903 87.6406C57.1821 87.7036 57.1821 87.7674 57.1903 87.8304C57.2024 87.8893 57.2189 87.9472 57.2398 88.0037C57.2535 88.0696 57.2817 88.1316 57.3223 88.1852L57.4296 88.3585H54.7393C54.6534 88.1519 54.5924 87.9359 54.5577 87.7148C54.5577 87.4755 54.4917 87.1784 54.4752 86.8401C54.4587 86.5017 54.4669 86.2706 54.4669 86.1799C54.4566 85.6908 54.2756 85.2208 53.9553 84.8512C53.5671 84.5606 53.0845 84.4252 52.6019 84.4716H50.9513V88.375L48.1455 88.3585ZM50.8771 82.5075H52.8164C53.2374 82.533 53.6573 82.4416 54.0296 82.2434C54.1851 82.1274 54.3074 81.9726 54.3842 81.7944C54.4609 81.6162 54.4895 81.421 54.4669 81.2283C54.4669 80.4031 53.9058 80.0069 52.8164 80.0069H50.8771V82.5075Z" fill="white"/>
<path d="M53.3446 95.5384V105.986H50.5965V95.5054L53.3446 95.5384Z" fill="white"/>
<path d="M72.9775 77.8691V80.1964H69.8745V88.3581H67.1016V80.1964H63.9987V77.8691H72.9775Z" fill="white"/>
<path d="M69.8827 95.5218L73.7945 105.986H70.9721L70.2954 104.071H66.6725L66.0205 105.986H63.1817L67.1099 95.4888L69.8827 95.5218ZM69.6764 102.124L68.4963 98.4679L67.2914 102.132L69.6764 102.124Z" fill="white"/>
<path d="M86 10.2231H76.0557L72.9857 0.765625V19.6805L81.032 25.5233L77.9537 16.0659L86 10.2231Z" fill="white"/>
<path d="M72.9857 0.765656V0.353027H52.0407V26.3486H20.945V0.353027H0V69.6581H20.945V42.7547H52.0407V69.6581H72.9857V19.6805L64.9395 25.5234L68.0094 16.0659L59.9714 10.2231H69.9075L72.9857 0.765656Z" fill="white"/>
</g>
<defs>
<clipPath id="clip0">
<rect y="0.353027" width="86" height="105.666" fill="white"/>
</clipPath>
</defs>
</svg>
