<svg width="16" height="16" viewBox="0 0 16 16" fill="none" xmlns="http://www.w3.org/2000/svg">
<path d="M12.3658 2.03711C11.3333 1.04591 9.90436 0.5 8.34234 0.5C5.95626 0.5 4.48872 1.47809 3.67778 2.29855C2.67836 3.30969 2.10526 4.65226 2.10526 5.98212C2.10526 7.65184 2.80366 8.93341 3.97323 9.41019C4.05175 9.44236 4.13076 9.45857 4.20821 9.45857C4.45495 9.45857 4.65045 9.29713 4.71818 9.03815C4.75766 8.88958 4.84915 8.52306 4.88891 8.36394C4.97406 8.04971 4.90527 7.89857 4.71958 7.67975C4.38132 7.27951 4.22379 6.80621 4.22379 6.19025C4.22379 4.36063 5.58616 2.41612 8.11118 2.41612C10.1147 2.41612 11.3592 3.55482 11.3592 5.38783C11.3592 6.54453 11.1101 7.61575 10.6575 8.40428C10.3431 8.95218 9.79009 9.6053 8.94118 9.6053C8.57407 9.6053 8.24432 9.45451 8.03624 9.19161C7.83967 8.94309 7.77489 8.62204 7.85395 8.28745C7.94325 7.90941 8.06502 7.51507 8.18288 7.13384C8.39783 6.43756 8.60102 5.77994 8.60102 5.25527C8.60102 4.35783 8.0493 3.75483 7.22825 3.75483C6.18481 3.75483 5.36734 4.81463 5.36734 6.16756C5.36734 6.83108 5.54368 7.32736 5.62351 7.51792C5.49206 8.07487 4.71083 11.386 4.56264 12.0104C4.47696 12.3749 3.9608 15.2537 4.81513 15.4833C5.77503 15.7412 6.63304 12.9374 6.72037 12.6206C6.79114 12.3629 7.0388 11.3886 7.19057 10.7896C7.65394 11.236 8.40005 11.5377 9.12604 11.5377C10.4946 11.5377 11.7255 10.9219 12.5918 9.80366C13.432 8.71909 13.8947 7.20743 13.8947 5.54733C13.8947 4.24951 13.3374 2.97006 12.3658 2.03711Z" fill="#C1B55D"/>
</svg>
