<svg width="16" height="16" viewBox="0 0 16 16" fill="none" xmlns="http://www.w3.org/2000/svg">
<path d="M15.4604 4.91005C15.4253 4.11304 15.2964 3.56511 15.1118 3.09031C14.9213 2.58633 14.6283 2.13511 14.2444 1.76002C13.8693 1.37908 13.4151 1.08308 12.917 0.895586C12.4394 0.710956 11.8943 0.58207 11.0973 0.54693C10.2944 0.508814 10.0395 0.5 8.00292 0.5C5.96638 0.5 5.71147 0.508814 4.91149 0.543954C4.11448 0.579094 3.56654 0.708095 3.09186 0.89261C2.58776 1.08308 2.13655 1.3761 1.76145 1.76002C1.38051 2.13511 1.08463 2.5893 0.89702 3.08745C0.712391 3.56511 0.583505 4.11007 0.548364 4.90708C0.510248 5.71004 0.501434 5.96495 0.501434 8.00149C0.501434 10.038 0.510248 10.2929 0.545388 11.0929C0.580529 11.8899 0.709529 12.4379 0.894159 12.9127C1.08463 13.4166 1.38051 13.8679 1.76145 14.243C2.13655 14.6239 2.59074 14.9199 3.08888 15.1074C3.56654 15.292 4.1115 15.4209 4.90862 15.456C5.7085 15.4913 5.96352 15.5 8.00006 15.5C10.0366 15.5 10.2915 15.4913 11.0915 15.456C11.8885 15.4209 12.4364 15.292 12.9111 15.1074C13.9192 14.7176 14.7162 13.9206 15.106 12.9127C15.2905 12.435 15.4195 11.8899 15.4546 11.0929C15.4897 10.2929 15.4986 10.038 15.4986 8.00149C15.4986 5.96495 15.4956 5.71004 15.4604 4.91005ZM14.1097 11.0343C14.0774 11.7669 13.9543 12.1625 13.8518 12.4262C13.5997 13.0797 13.0811 13.5983 12.4276 13.8504C12.1639 13.9529 11.7654 14.076 11.0357 14.1081C10.2446 14.1434 10.0073 14.1521 8.00589 14.1521C6.0045 14.1521 5.76424 14.1434 4.97593 14.1081C4.24336 14.076 3.84778 13.9529 3.58405 13.8504C3.25886 13.7302 2.96286 13.5397 2.7226 13.2906C2.47353 13.0474 2.28306 12.7544 2.16287 12.4292C2.06031 12.1654 1.93727 11.7669 1.9051 11.0373C1.86985 10.2461 1.86115 10.0087 1.86115 8.00733C1.86115 6.00593 1.86985 5.76567 1.9051 4.97747C1.93727 4.24491 2.06031 3.84932 2.16287 3.5856C2.28306 3.26029 2.47353 2.9644 2.72558 2.72403C2.9687 2.47496 3.26172 2.28449 3.58703 2.16442C3.85075 2.06186 4.24931 1.93881 4.97891 1.90653C5.77008 1.87139 6.00747 1.86258 8.00876 1.86258C10.0131 1.86258 10.2504 1.87139 11.0387 1.90653C11.7713 1.93881 12.1669 2.06186 12.4306 2.16442C12.7558 2.28449 13.0518 2.47496 13.292 2.72403C13.5411 2.96726 13.7316 3.26029 13.8518 3.5856C13.9543 3.84932 14.0774 4.24777 14.1097 4.97747C14.1448 5.76865 14.1536 6.00593 14.1536 8.00733C14.1536 10.0087 14.1448 10.2431 14.1097 11.0343Z" fill="#C1B55D"/>
<path d="M8.0029 4.14844C5.87559 4.14844 4.1496 5.87432 4.1496 8.00174C4.1496 10.1292 5.87559 11.855 8.0029 11.855C10.1303 11.855 11.8562 10.1292 11.8562 8.00174C11.8562 5.87432 10.1303 4.14844 8.0029 4.14844ZM8.0029 10.5013C6.62281 10.5013 5.50336 9.38194 5.50336 8.00174C5.50336 6.62154 6.62281 5.5022 8.0029 5.5022C9.3831 5.5022 10.5024 6.62154 10.5024 8.00174C10.5024 9.38194 9.3831 10.5013 8.0029 10.5013V10.5013Z" fill="#C1B55D"/>
<path d="M12.9083 3.99625C12.9083 4.49302 12.5055 4.89582 12.0086 4.89582C11.5118 4.89582 11.109 4.49302 11.109 3.99625C11.109 3.49936 11.5118 3.09668 12.0086 3.09668C12.5055 3.09668 12.9083 3.49936 12.9083 3.99625V3.99625Z" fill="#C1B55D"/>
</svg>
