<svg width="16" height="16" viewBox="0 0 16 16" fill="none" xmlns="http://www.w3.org/2000/svg">
<path d="M4.00405 5.04883H0.856934V14.4997H4.00405V5.04883Z" fill="#232225"/>
<path d="M14.3324 5.91212C13.6713 5.19048 12.7969 4.82959 11.7098 4.82959C11.3093 4.82959 10.9452 4.87886 10.6177 4.97747C10.2903 5.07601 10.0138 5.21426 9.78804 5.3923C9.5624 5.57034 9.38269 5.73562 9.24928 5.88814C9.12241 6.03301 8.99835 6.20176 8.8773 6.39266V5.04878H5.73956L5.74918 5.50661C5.75563 5.81188 5.7588 6.75278 5.7588 8.32945C5.7588 9.90625 5.75246 11.963 5.7397 14.4998H8.8773V9.22582C8.8773 8.90164 8.91207 8.64421 8.98215 8.45331C9.11576 8.12889 9.31742 7.85729 9.58778 7.63803C9.85812 7.41851 10.1934 7.30884 10.5941 7.30884C11.1407 7.30884 11.5429 7.49797 11.8005 7.87627C12.0579 8.25452 12.1867 8.77749 12.1867 9.44508V14.4995H15.3243V9.08292C15.324 7.69041 14.9937 6.63353 14.3324 5.91212Z" fill="#232225"/>
<path d="M2.44953 0.5C1.92189 0.5 1.49437 0.65429 1.16685 0.962568C0.839363 1.27091 0.67572 1.66019 0.67572 2.13078C0.67572 2.59478 0.834653 2.98273 1.15255 3.29418C1.47035 3.60567 1.89003 3.76149 2.41135 3.76149H2.43043C2.96454 3.76149 3.39534 3.6058 3.72273 3.29418C4.05012 2.98273 4.21062 2.59492 4.2043 2.13078C4.19796 1.66023 4.03572 1.27091 3.71792 0.962568C3.40015 0.654156 2.9772 0.5 2.44953 0.5Z" fill="#232225"/>
</svg>
