<?xml version="1.0" standalone="no"?>
<!DOCTYPE svg PUBLIC "-//W3C//DTD SVG 20010904//EN"
 "http://www.w3.org/TR/2001/REC-SVG-20010904/DTD/svg10.dtd">
<svg version="1.0" xmlns="http://www.w3.org/2000/svg"
 width="700.000000pt" height="700.000000pt" viewBox="0 0 700.000000 700.000000"
 preserveAspectRatio="xMidYMid meet">
<metadata>
Created by potrace 1.11, written by Peter Selinger 2001-2013
</metadata>
<g transform="translate(0.000000,700.000000) scale(0.100000,-0.100000)"
fill="#000000" stroke="none">
<path d="M54 3500 l0 -2800 846 0 846 0 0 1077 c-1 753 2 1080 10 1087 7 8
378 10 1245 9 679 -1 1240 -2 1247 -2 9 -1 12 -225 12 -1086 l0 -1085 843 2
842 3 1 2017 1 2017 -31 -22 c-17 -12 -35 -25 -41 -30 -5 -4 -84 -62 -175
-128 -185 -134 -171 -124 -300 -219 -52 -38 -95 -68 -96 -67 -1 1 13 47 31
102 18 55 56 172 84 260 28 88 68 214 89 279 l39 120 -91 65 c-50 37 -101 73
-113 81 -12 8 -99 71 -193 140 -95 69 -188 136 -208 150 l-37 25 396 3 396 2
16 43 c8 23 50 150 92 282 42 132 87 273 101 314 24 70 28 84 40 139 l4 22
-845 0 -845 0 0 -1050 0 -1050 -1257 2 -1257 3 0 1048 0 1047 -846 0 -846 0 0
-2800z"/>
<path d="M5950 6205 c-1 -27 -3 -367 -3 -754 l-2 -705 55 -43 c30 -24 78 -59
105 -78 28 -19 105 -75 173 -125 68 -49 125 -90 128 -90 2 0 12 -6 21 -14 30
-24 147 -112 160 -119 9 -6 10 -1 3 20 -30 91 -122 380 -124 388 -5 25 -99
312 -107 327 -9 18 9 34 136 124 11 7 53 37 93 66 90 66 222 161 326 236 l80
57 -398 5 -398 5 -74 225 c-41 124 -77 232 -79 240 -2 8 -24 76 -49 150 -44
132 -45 134 -46 85z"/>
</g>
</svg>
